<svg height="512" viewBox="0 0 512 512" width="512" xmlns="http://www.w3.org/2000/svg"><g id="flat"><path d="m344 488h-272l-32-256h336z" fill="#e82f3e"/><path d="m464 488h-96l-16-160h128z" fill="#0296e5"/><path d="m473.71 390.89-4.72 47.17-107.89-19.04-4.88-48.86z" fill="#0296e5"/><path d="m488 296h-144l8-32h128z" fill="#eaeae8"/><path d="m448 264h-16v-80l24-48h16l-24 56z" fill="#0276b4"/><g fill="#cbcbcb"><path d="m184 232h48v256h-48z"/><path d="m144 488h-40l-16-256h48z"/><path d="m312 488h-40l8-256h48z"/></g><path d="m291.714 120.036a20 20 0 0 0 -11.142-26 20 20 0 1 0 -37.139-14.856 20 20 0 0 0 -14.856 37.139c.208.083.418.139.627.215a.275.275 0 0 0 -.014.03 20 20 0 0 0 37.139 14.856c0-.011.006-.022.01-.032a19.986 19.986 0 0 0 25.375-11.352z" fill="#d18d28"/><path d="m187.88 99.034a20 20 0 0 0 -25.913-11.334 20 20 0 0 0 -37.25 14.576 20 20 0 0 0 14.576 37.25c.208-.081.4-.185.6-.272 0 .01.006.021.01.032a20 20 0 1 0 37.25-14.576c0-.011-.01-.02-.014-.031a19.985 19.985 0 0 0 10.741-25.645z" fill="#fbb540"/><path d="m99.88 48.054a20 20 0 0 0 -25.913-11.337 20 20 0 1 0 -37.25 14.576 20 20 0 0 0 14.576 37.25c.208-.081.4-.184.6-.272 0 .011.006.021.01.032a20 20 0 0 0 37.25-14.576c0-.011-.01-.02-.014-.03a19.986 19.986 0 0 0 10.741-25.643z" fill="#d18d28"/><path d="m120 184a20 20 0 0 0 -20-20 20 20 0 0 0 -40 0 20 20 0 0 0 0 40c.223 0 .439-.026.661-.033v.033a20 20 0 1 0 40 0c0-.011 0-.022 0-.033a19.986 19.986 0 0 0 19.339-19.967z" fill="#fbb540"/><path d="m200 184a20 20 0 0 0 -20-20 20 20 0 0 0 -40 0 20 20 0 0 0 0 40c.223 0 .439-.026.661-.033v.033a20 20 0 0 0 40 0c0-.011 0-.022 0-.033a19.986 19.986 0 0 0 19.339-19.967z" fill="#d18d28"/><path d="m280 184a20 20 0 0 0 -20-20 20 20 0 0 0 -40 0 20 20 0 0 0 0 40c.223 0 .439-.026.661-.033v.033a20 20 0 0 0 40 0c0-.011 0-.022 0-.033a19.986 19.986 0 0 0 19.339-19.967z" fill="#fbb540"/><path d="m360 184a20 20 0 0 0 -20-20 20 20 0 0 0 -40 0 20 20 0 0 0 0 40c.223 0 .439-.026.661-.033v.033a20 20 0 0 0 40 0c0-.011 0-.022 0-.033a19.986 19.986 0 0 0 19.339-19.967z" fill="#d18d28"/><path d="m389.936 95.625a20 20 0 0 0 -9.1-26.78 20 20 0 0 0 -35.881-17.681 20 20 0 0 0 -17.68 35.881c.2.1.406.171.608.262 0 .01-.012.019-.017.029a20 20 0 1 0 35.881 17.68c0-.01.008-.02.013-.03a19.985 19.985 0 0 0 26.176-9.361z" fill="#fbb540"/><circle cx="208" cy="352" fill="#eaeae8" r="72"/><path d="m473.71 390.89-4.72 47.17-107.89-19.04-4.88-48.86z" fill="#0276b4"/><path d="m336 296h160v32h-160z" fill="#cbcbcb"/><rect fill="#eaeae8" height="32" rx="16" width="368" x="24" y="200"/><path d="m432 248h16v16h-16z" fill="#015078"/></g></svg>